STARTFONT 2.1
COMMENT "Generated by fontforge, http://fontforge.sourceforge.net"
COMMENT "Copyright BulBulMan 2026"
FONT -FontForge-BulBulPoly 4-Book-R-Normal--25-240-75-75-P-106-ISO10646-1
SIZE 24 75 75
FONTBOUNDINGBOX 22 28 0 -6
STARTPROPERTIES 39
FOUNDRY "FontForge"
FAMILY_NAME "BulBulPoly 4"
WEIGHT_NAME "Book"
SLANT "R"
SETWIDTH_NAME "Normal"
ADD_STYLE_NAME ""
PIXEL_SIZE 25
POINT_SIZE 240
RESOLUTION_X 75
RESOLUTION_Y 75
SPACING "P"
AVERAGE_WIDTH 106
CHARSET_REGISTRY "ISO10646"
CHARSET_ENCODING "1"
FONTNAME_REGISTRY ""
CHARSET_COLLECTIONS "ISO8859-5 ISO10646-1"
FONT_NAME "BulBulPoly4"
FACE_NAME "BulBulPoly 4 Regular"
COPYRIGHT "Copyright BulBulMan 2026"
FONT_VERSION "1.0"
FONT_ASCENT 20
FONT_DESCENT 5
UNDERLINE_POSITION 2
UNDERLINE_THICKNESS 2
X_HEIGHT 11
CAP_HEIGHT 16
RAW_ASCENT 799
RAW_DESCENT 200
NORM_SPACE 4
RELATIVE_WEIGHT 40
RELATIVE_SETWIDTH 50
SUPERSCRIPT_X 0
SUPERSCRIPT_Y 12
SUPERSCRIPT_SIZE 12
SUBSCRIPT_X 0
SUBSCRIPT_Y -3
SUBSCRIPT_SIZE 12
AVG_LOWERCASE_WIDTH 104
AVG_UPPERCASE_WIDTH 132
ENDPROPERTIES
CHARS 171
STARTCHAR .null
ENCODING 0
SWIDTH 0 0
DWIDTH 0 0
BBX 1 1 0 0
BITMAP
00
ENDCHAR
STARTCHAR nonmarkingreturn
ENCODING 13
SWIDTH 333 0
DWIDTH 8 0
BBX 1 1 0 0
BITMAP
00
ENDCHAR
STARTCHAR space
ENCODING 32
SWIDTH 153 0
DWIDTH 4 0
BBX 1 1 0 0
BITMAP
00
ENDCHAR
STARTCHAR exclam
ENCODING 33
SWIDTH 153 0
DWIDTH 4 0
BBX 2 17 0 0
BITMAP
C0
C0
C0
C0
C0
C0
C0
C0
C0
C0
C0
C0
C0
00
00
C0
C0
ENDCHAR
STARTCHAR quotedbl
ENCODING 34
SWIDTH 269 0
DWIDTH 7 0
BBX 5 4 0 13
BITMAP
D8
D8
D8
D8
ENDCHAR
STARTCHAR percent
ENCODING 37
SWIDTH 520 0
DWIDTH 13 0
BBX 11 17 0 0
BITMAP
7060
D860
88E0
D8C0
7180
0380
0300
0600
0E00
0C00
1800
3800
31C0
6360
E220
C360
C1C0
ENDCHAR
STARTCHAR quotesingle
ENCODING 39
SWIDTH 153 0
DWIDTH 4 0
BBX 2 5 0 12
BITMAP
C0
C0
C0
C0
C0
ENDCHAR
STARTCHAR parenleft
ENCODING 40
SWIDTH 360 0
DWIDTH 9 0
BBX 7 17 0 0
BITMAP
0E
3E
78
60
E0
C0
C0
C0
C0
C0
C0
C0
E0
60
78
3E
0E
ENDCHAR
STARTCHAR parenright
ENCODING 41
SWIDTH 360 0
DWIDTH 9 0
BBX 7 17 0 0
BITMAP
E0
F8
3C
0C
0E
06
06
06
06
06
06
06
0E
0C
3C
F8
E0
ENDCHAR
STARTCHAR asterisk
ENCODING 42
SWIDTH 307 0
DWIDTH 8 0
BBX 6 6 0 10
BITMAP
10
30
3C
F8
68
48
ENDCHAR
STARTCHAR plus
ENCODING 43
SWIDTH 307 0
DWIDTH 8 0
BBX 6 6 0 6
BITMAP
30
30
FC
FC
30
30
ENDCHAR
STARTCHAR comma
ENCODING 44
SWIDTH 153 0
DWIDTH 4 0
BBX 2 4 0 -2
BITMAP
C0
C0
80
80
ENDCHAR
STARTCHAR hyphen
ENCODING 45
SWIDTH 307 0
DWIDTH 8 0
BBX 6 2 0 8
BITMAP
FC
FC
ENDCHAR
STARTCHAR period
ENCODING 46
SWIDTH 153 0
DWIDTH 4 0
BBX 2 2 0 0
BITMAP
C0
C0
ENDCHAR
STARTCHAR slash
ENCODING 47
SWIDTH 520 0
DWIDTH 13 0
BBX 11 17 0 0
BITMAP
0060
0060
00E0
00C0
0180
0380
0300
0600
0E00
0C00
1800
3800
3000
6000
E000
C000
C000
ENDCHAR
STARTCHAR zero
ENCODING 48
SWIDTH 345 0
DWIDTH 9 0
BBX 7 12 0 0
BITMAP
38
7C
EE
C6
C6
C6
C6
C6
C6
EE
7C
38
ENDCHAR
STARTCHAR one
ENCODING 49
SWIDTH 269 0
DWIDTH 7 0
BBX 5 12 0 0
BITMAP
18
38
78
D8
18
18
18
18
18
18
18
18
ENDCHAR
STARTCHAR two
ENCODING 50
SWIDTH 345 0
DWIDTH 9 0
BBX 7 12 0 0
BITMAP
3C
7E
E6
C6
06
0E
1C
38
70
E0
FE
FE
ENDCHAR
STARTCHAR three
ENCODING 51
SWIDTH 345 0
DWIDTH 9 0
BBX 7 12 0 0
BITMAP
78
FC
CE
0E
1C
38
3C
0E
06
C6
FE
7C
ENDCHAR
STARTCHAR four
ENCODING 52
SWIDTH 345 0
DWIDTH 9 0
BBX 7 12 0 0
BITMAP
1C
1C
3C
3C
6C
6C
CC
CC
FE
FE
0C
0C
ENDCHAR
STARTCHAR five
ENCODING 53
SWIDTH 345 0
DWIDTH 9 0
BBX 7 12 0 0
BITMAP
7E
FE
C0
C0
F8
FC
CE
06
06
CE
FC
78
ENDCHAR
STARTCHAR six
ENCODING 54
SWIDTH 384 0
DWIDTH 10 0
BBX 8 12 0 0
BITMAP
3E
7F
E3
C0
C0
FC
FE
E7
C3
E7
7E
3C
ENDCHAR
STARTCHAR seven
ENCODING 55
SWIDTH 384 0
DWIDTH 10 0
BBX 8 12 0 0
BITMAP
FF
FF
07
0E
1C
18
18
38
30
30
30
30
ENDCHAR
STARTCHAR eight
ENCODING 56
SWIDTH 384 0
DWIDTH 10 0
BBX 8 12 0 0
BITMAP
3C
7E
66
66
7E
3C
7E
E7
C3
E7
7E
3C
ENDCHAR
STARTCHAR nine
ENCODING 57
SWIDTH 384 0
DWIDTH 10 0
BBX 8 12 0 0
BITMAP
3C
7E
E7
C3
E7
7F
3F
03
03
C7
FE
7C
ENDCHAR
STARTCHAR colon
ENCODING 58
SWIDTH 153 0
DWIDTH 4 0
BBX 2 10 0 1
BITMAP
C0
C0
00
00
00
00
00
00
C0
C0
ENDCHAR
STARTCHAR semicolon
ENCODING 59
SWIDTH 153 0
DWIDTH 4 0
BBX 2 12 0 -1
BITMAP
C0
C0
00
00
00
00
00
00
C0
C0
80
80
ENDCHAR
STARTCHAR less
ENCODING 60
SWIDTH 345 0
DWIDTH 9 0
BBX 7 12 0 3
BITMAP
06
0E
1C
38
70
E0
E0
70
38
1C
0E
06
ENDCHAR
STARTCHAR equal
ENCODING 61
SWIDTH 307 0
DWIDTH 8 0
BBX 6 6 0 6
BITMAP
FC
FC
00
00
FC
FC
ENDCHAR
STARTCHAR greater
ENCODING 62
SWIDTH 345 0
DWIDTH 9 0
BBX 7 12 0 3
BITMAP
C0
E0
70
38
1C
0E
0E
1C
38
70
E0
C0
ENDCHAR
STARTCHAR question
ENCODING 63
SWIDTH 440 0
DWIDTH 11 0
BBX 9 17 0 0
BITMAP
3E00
7F00
E380
C180
C180
0180
0380
0700
0600
0C00
0C00
0C00
0C00
0000
0000
0C00
0C00
ENDCHAR
STARTCHAR A
ENCODING 65
SWIDTH 560 0
DWIDTH 14 0
BBX 12 17 0 0
BITMAP
0F00
3FC0
70E0
6060
C030
C030
C030
C030
FFF0
FFF0
C030
C030
C030
C030
C030
C030
C030
ENDCHAR
STARTCHAR B
ENCODING 66
SWIDTH 461 0
DWIDTH 12 0
BBX 10 17 0 0
BITMAP
FC00
FE00
C700
C300
C300
C700
CE00
FE00
FF00
C380
C1C0
C0C0
C0C0
C180
C780
FF00
FC00
ENDCHAR
STARTCHAR C
ENCODING 67
SWIDTH 520 0
DWIDTH 13 0
BBX 11 17 0 0
BITMAP
1F80
3FC0
70E0
6060
E060
C000
C000
C000
C000
C000
C000
C000
E060
6060
70E0
3FC0
1F80
ENDCHAR
STARTCHAR D
ENCODING 68
SWIDTH 520 0
DWIDTH 13 0
BBX 11 17 0 0
BITMAP
FC00
FF00
C780
C1C0
C0C0
C0E0
C060
C060
C060
C060
C060
C0E0
C0C0
C1C0
C780
FF00
FC00
ENDCHAR
STARTCHAR E
ENCODING 69
SWIDTH 520 0
DWIDTH 13 0
BBX 11 17 0 0
BITMAP
FFE0
FFE0
C000
C000
C000
C000
C000
FF80
FF80
C000
C000
C000
C000
C000
C000
FFE0
FFE0
ENDCHAR
STARTCHAR F
ENCODING 70
SWIDTH 461 0
DWIDTH 12 0
BBX 10 17 0 0
BITMAP
FFC0
FFC0
C000
C000
C000
C000
C000
FF00
FF00
C000
C000
C000
C000
C000
C000
C000
C000
ENDCHAR
STARTCHAR G
ENCODING 71
SWIDTH 520 0
DWIDTH 13 0
BBX 11 17 0 0
BITMAP
1F80
3FC0
70E0
6060
E060
C000
C000
C000
CFE0
CFE0
C060
C060
E0E0
60E0
71E0
3FE0
1F60
ENDCHAR
STARTCHAR H
ENCODING 72
SWIDTH 520 0
DWIDTH 13 0
BBX 11 17 0 0
BITMAP
C060
C060
C060
C060
C060
C060
C060
C060
FFE0
FFE0
C060
C060
C060
C060
C060
C060
C060
ENDCHAR
STARTCHAR I
ENCODING 73
SWIDTH 307 0
DWIDTH 8 0
BBX 6 17 0 0
BITMAP
FC
FC
30
30
30
30
30
30
30
30
30
30
30
30
30
FC
FC
ENDCHAR
STARTCHAR J
ENCODING 74
SWIDTH 422 0
DWIDTH 11 0
BBX 9 17 0 0
BITMAP
FF80
FF80
0180
0180
0180
0180
0180
0180
0180
0180
0180
0180
C180
C180
E380
7F00
3E00
ENDCHAR
STARTCHAR K
ENCODING 75
SWIDTH 520 0
DWIDTH 13 0
BBX 11 17 0 0
BITMAP
C060
C060
C060
C0E0
C1C0
C380
CF00
FE00
FF00
C780
C1C0
C0C0
C0E0
C060
C060
C060
C060
ENDCHAR
STARTCHAR L
ENCODING 76
SWIDTH 461 0
DWIDTH 12 0
BBX 10 17 0 0
BITMAP
C000
C000
C000
C000
C000
C000
C000
C000
C000
C000
C000
C000
C000
C000
C000
FFC0
FFC0
ENDCHAR
STARTCHAR M
ENCODING 77
SWIDTH 640 0
DWIDTH 16 0
BBX 14 17 0 0
BITMAP
E01C
E01C
F03C
F03C
F87C
D86C
DCEC
CCCC
CFCC
C78C
C78C
C30C
C30C
C00C
C00C
C00C
C00C
ENDCHAR
STARTCHAR N
ENCODING 78
SWIDTH 560 0
DWIDTH 14 0
BBX 12 17 0 0
BITMAP
E030
F030
F030
F830
D830
DC30
CC30
CE30
C630
C730
C330
C3B0
C1B0
C1F0
C0F0
C0F0
C070
ENDCHAR
STARTCHAR O
ENCODING 79
SWIDTH 560 0
DWIDTH 14 0
BBX 12 17 0 0
BITMAP
1F80
3FC0
70E0
6060
E070
C030
C030
C030
C030
C030
C030
C030
E070
6060
70E0
3FC0
1F80
ENDCHAR
STARTCHAR P
ENCODING 80
SWIDTH 461 0
DWIDTH 12 0
BBX 10 17 0 0
BITMAP
FE00
FF00
C380
C180
C0C0
C0C0
C0C0
C180
C380
FF00
FE00
C000
C000
C000
C000
C000
C000
ENDCHAR
STARTCHAR Q
ENCODING 81
SWIDTH 576 0
DWIDTH 14 0
BBX 13 18 0 -1
BITMAP
1F80
3FC0
70E0
6060
E070
C030
C030
C030
C030
C030
C030
C030
E070
6060
70F0
3FF0
1FB8
0018
ENDCHAR
STARTCHAR R
ENCODING 82
SWIDTH 461 0
DWIDTH 12 0
BBX 10 17 0 0
BITMAP
FC00
FF00
C780
C180
C0C0
C0C0
C0C0
C180
C780
FF00
FC00
CE00
C700
C380
C1C0
C0C0
C0C0
ENDCHAR
STARTCHAR S
ENCODING 83
SWIDTH 461 0
DWIDTH 12 0
BBX 10 17 0 0
BITMAP
1E00
3F00
7380
E1C0
C0C0
C000
E000
7E00
1F80
01C0
00C0
00C0
C0C0
E1C0
7380
3F00
1E00
ENDCHAR
STARTCHAR T
ENCODING 84
SWIDTH 560 0
DWIDTH 14 0
BBX 11 17 1 0
BITMAP
FFE0
FFE0
0C00
0C00
0C00
0C00
0C00
0C00
0C00
0C00
0C00
0C00
0C00
0C00
0C00
0C00
0C00
ENDCHAR
STARTCHAR U
ENCODING 85
SWIDTH 520 0
DWIDTH 13 0
BBX 11 17 0 0
BITMAP
C060
C060
C060
C060
C060
C060
C060
C060
C060
C060
C060
C060
C060
E0E0
71C0
3F80
1F00
ENDCHAR
STARTCHAR V
ENCODING 86
SWIDTH 560 0
DWIDTH 14 0
BBX 12 17 0 0
BITMAP
C030
C030
C030
C030
6060
6060
6060
30C0
30C0
30C0
1980
1980
1980
0F00
0F00
0F00
0600
ENDCHAR
STARTCHAR W
ENCODING 87
SWIDTH 840 0
DWIDTH 21 0
BBX 19 17 0 0
BITMAP
C00060
C00060
C00060
C00060
6040C0
6040C0
6040C0
30E180
30E180
30E180
19B300
19B300
19B300
0F1E00
0F1E00
0F1E00
060C00
ENDCHAR
STARTCHAR X
ENCODING 88
SWIDTH 600 0
DWIDTH 15 0
BBX 13 17 0 0
BITMAP
C018
C018
C018
E038
6030
7070
38E0
1FC0
0F80
1FC0
38E0
7070
6030
E038
C018
C018
C018
ENDCHAR
STARTCHAR Y
ENCODING 89
SWIDTH 560 0
DWIDTH 14 0
BBX 12 17 0 0
BITMAP
C030
C030
C030
E070
70E0
39C0
1F80
0F00
0600
0600
0600
0600
0600
0600
0600
0600
0600
ENDCHAR
STARTCHAR Z
ENCODING 90
SWIDTH 520 0
DWIDTH 13 0
BBX 11 17 0 0
BITMAP
FFE0
FFE0
0060
0060
00E0
01C0
0380
0700
0E00
1C00
3800
7000
E000
C000
C000
FFE0
FFE0
ENDCHAR
STARTCHAR bracketleft
ENCODING 91
SWIDTH 320 0
DWIDTH 8 0
BBX 6 17 0 0
BITMAP
FC
FC
C0
C0
C0
C0
C0
C0
C0
C0
C0
C0
C0
C0
C0
FC
FC
ENDCHAR
STARTCHAR backslash
ENCODING 92
SWIDTH 520 0
DWIDTH 13 0
BBX 11 17 0 0
BITMAP
C000
C000
E000
6000
3000
3800
1800
0C00
0E00
0600
0300
0380
0180
00C0
00E0
0060
0060
ENDCHAR
STARTCHAR bracketright
ENCODING 93
SWIDTH 320 0
DWIDTH 8 0
BBX 6 17 0 0
BITMAP
FC
FC
0C
0C
0C
0C
0C
0C
0C
0C
0C
0C
0C
0C
0C
FC
FC
ENDCHAR
STARTCHAR asciicircum
ENCODING 94
SWIDTH 440 0
DWIDTH 11 0
BBX 9 6 0 11
BITMAP
0800
1C00
3E00
7700
E380
C180
ENDCHAR
STARTCHAR underscore
ENCODING 95
SWIDTH 400 0
DWIDTH 10 0
BBX 8 2 0 0
BITMAP
FF
FF
ENDCHAR
STARTCHAR a
ENCODING 97
SWIDTH 384 0
DWIDTH 10 0
BBX 9 12 0 0
BITMAP
7E00
FF00
C300
0300
0300
3F00
7F00
E300
C300
E300
7F80
3D80
ENDCHAR
STARTCHAR b
ENCODING 98
SWIDTH 384 0
DWIDTH 10 0
BBX 8 17 0 0
BITMAP
C0
C0
C0
C0
C0
FC
FE
C7
C3
C3
C3
C3
C3
C3
C7
FE
FC
ENDCHAR
STARTCHAR c
ENCODING 99
SWIDTH 345 0
DWIDTH 9 0
BBX 7 12 0 0
BITMAP
3C
7E
E6
C0
C0
C0
C0
C0
C0
E6
7E
3C
ENDCHAR
STARTCHAR d
ENCODING 100
SWIDTH 384 0
DWIDTH 10 0
BBX 8 17 0 0
BITMAP
03
03
03
03
03
3F
7F
E3
C3
C3
C3
C3
C3
C3
E3
7F
3F
ENDCHAR
STARTCHAR e
ENCODING 101
SWIDTH 384 0
DWIDTH 10 0
BBX 8 12 0 0
BITMAP
3C
7E
E7
C3
C3
FF
FE
C0
C0
E3
7F
3E
ENDCHAR
STARTCHAR f
ENCODING 102
SWIDTH 384 0
DWIDTH 10 0
BBX 8 17 0 0
BITMAP
1F
3F
70
60
60
FF
FF
60
60
60
60
60
60
60
60
60
60
ENDCHAR
STARTCHAR g
ENCODING 103
SWIDTH 384 0
DWIDTH 10 0
BBX 8 18 0 -6
BITMAP
3F
7F
E3
C3
C3
C3
C3
C3
C3
E3
7F
3F
03
C3
C3
E7
7E
3C
ENDCHAR
STARTCHAR h
ENCODING 104
SWIDTH 384 0
DWIDTH 10 0
BBX 8 17 0 0
BITMAP
C0
C0
C0
C0
C0
FC
FE
C7
C3
C3
C3
C3
C3
C3
C3
C3
C3
ENDCHAR
STARTCHAR i
ENCODING 105
SWIDTH 153 0
DWIDTH 4 0
BBX 2 17 0 0
BITMAP
C0
C0
00
00
C0
C0
C0
C0
C0
C0
C0
C0
C0
C0
C0
C0
C0
ENDCHAR
STARTCHAR j
ENCODING 106
SWIDTH 384 0
DWIDTH 10 0
BBX 8 23 0 -6
BITMAP
03
03
00
00
03
03
03
03
03
03
03
03
03
03
03
03
03
03
C3
C3
E7
7E
3C
ENDCHAR
STARTCHAR k
ENCODING 107
SWIDTH 384 0
DWIDTH 10 0
BBX 8 17 0 0
BITMAP
C0
C0
C0
C0
C0
C3
C7
CE
DC
F8
F0
F0
F8
DC
CE
C7
C3
ENDCHAR
STARTCHAR l
ENCODING 108
SWIDTH 153 0
DWIDTH 4 0
BBX 2 17 0 0
BITMAP
C0
C0
C0
C0
C0
C0
C0
C0
C0
C0
C0
C0
C0
C0
C0
C0
C0
ENDCHAR
STARTCHAR m
ENCODING 109
SWIDTH 560 0
DWIDTH 14 0
BBX 12 12 0 0
BITMAP
D9C0
FFE0
EF70
C630
C630
C630
C630
C630
C630
C630
C630
C630
ENDCHAR
STARTCHAR n
ENCODING 110
SWIDTH 384 0
DWIDTH 10 0
BBX 8 12 0 0
BITMAP
DC
FE
E7
C3
C3
C3
C3
C3
C3
C3
C3
C3
ENDCHAR
STARTCHAR o
ENCODING 111
SWIDTH 422 0
DWIDTH 11 0
BBX 9 12 0 0
BITMAP
3E00
7F00
E380
C180
C180
C180
C180
C180
C180
E380
7F00
3E00
ENDCHAR
STARTCHAR p
ENCODING 112
SWIDTH 384 0
DWIDTH 10 0
BBX 8 18 0 -6
BITMAP
FC
FE
C7
C3
C3
C3
C3
C3
C3
C7
FE
FC
C0
C0
C0
C0
C0
C0
ENDCHAR
STARTCHAR q
ENCODING 113
SWIDTH 384 0
DWIDTH 10 0
BBX 8 18 0 -6
BITMAP
3F
7F
E3
C3
C3
C3
C3
C3
C3
E3
7F
3F
03
03
03
03
03
03
ENDCHAR
STARTCHAR r
ENCODING 114
SWIDTH 345 0
DWIDTH 9 0
BBX 7 12 0 0
BITMAP
DC
FE
E2
C0
C0
C0
C0
C0
C0
C0
C0
C0
ENDCHAR
STARTCHAR s
ENCODING 115
SWIDTH 307 0
DWIDTH 8 0
BBX 6 12 0 0
BITMAP
78
FC
CC
C0
E0
70
38
1C
0C
CC
FC
78
ENDCHAR
STARTCHAR t
ENCODING 116
SWIDTH 384 0
DWIDTH 10 0
BBX 8 17 0 0
BITMAP
30
30
30
30
30
FF
FF
30
30
30
30
30
30
30
3B
1F
0E
ENDCHAR
STARTCHAR u
ENCODING 117
SWIDTH 400 0
DWIDTH 10 0
BBX 9 12 0 0
BITMAP
C300
C300
C300
C300
C300
C300
C300
C300
C300
E700
7F80
3D80
ENDCHAR
STARTCHAR v
ENCODING 118
SWIDTH 461 0
DWIDTH 12 0
BBX 10 12 0 0
BITMAP
C0C0
C0C0
C0C0
C0C0
6180
6180
3300
3300
3300
1E00
1E00
0C00
ENDCHAR
STARTCHAR w
ENCODING 119
SWIDTH 600 0
DWIDTH 15 0
BBX 13 12 0 0
BITMAP
C018
C218
C218
C718
E738
6DB0
68B0
78F0
38E0
3060
1040
1040
ENDCHAR
STARTCHAR x
ENCODING 120
SWIDTH 422 0
DWIDTH 11 0
BBX 9 12 0 0
BITMAP
C180
C180
6300
7700
3E00
1C00
1C00
3E00
7700
6300
C180
C180
ENDCHAR
STARTCHAR y
ENCODING 121
SWIDTH 480 0
DWIDTH 12 0
BBX 9 12 0 0
BITMAP
C180
C180
6300
6300
3600
3E00
1C00
0C00
1800
3800
F000
E000
ENDCHAR
STARTCHAR z
ENCODING 122
SWIDTH 384 0
DWIDTH 10 0
BBX 8 12 0 0
BITMAP
FF
FF
03
07
0E
1C
38
70
E0
C0
FF
FF
ENDCHAR
STARTCHAR braceleft
ENCODING 123
SWIDTH 400 0
DWIDTH 10 0
BBX 8 17 0 0
BITMAP
07
1F
3C
30
30
30
30
60
C0
60
30
30
30
30
3C
1F
07
ENDCHAR
STARTCHAR bar
ENCODING 124
SWIDTH 153 0
DWIDTH 4 0
BBX 2 17 0 0
BITMAP
C0
C0
C0
C0
C0
C0
C0
C0
C0
C0
C0
C0
C0
C0
C0
C0
C0
ENDCHAR
STARTCHAR braceright
ENCODING 125
SWIDTH 400 0
DWIDTH 10 0
BBX 8 17 0 0
BITMAP
E0
F8
3C
0C
0C
0C
0C
06
03
06
0C
0C
0C
0C
3C
F8
E0
ENDCHAR
STARTCHAR asciitilde
ENCODING 126
SWIDTH 480 0
DWIDTH 12 0
BBX 10 4 0 13
BITMAP
38C0
7DC0
EF80
C700
ENDCHAR
STARTCHAR currency
ENCODING 164
SWIDTH 360 0
DWIDTH 9 0
BBX 7 12 0 0
BITMAP
38
38
38
38
38
38
38
38
38
FE
FE
EE
ENDCHAR
STARTCHAR yen
ENCODING 165
SWIDTH 560 0
DWIDTH 14 0
BBX 12 17 0 0
BITMAP
C030
C030
C030
E070
70E0
39C0
1F80
0F00
0600
0600
3FC0
3FC0
0600
3FC0
3FC0
0600
0600
ENDCHAR
STARTCHAR brokenbar
ENCODING 166
SWIDTH 160 0
DWIDTH 4 0
BBX 2 17 0 0
BITMAP
C0
C0
C0
C0
C0
C0
C0
00
00
00
C0
C0
C0
C0
C0
C0
C0
ENDCHAR
STARTCHAR uni0401
ENCODING 1025
SWIDTH 520 0
DWIDTH 13 0
BBX 11 20 0 0
BITMAP
3180
3180
0000
FFE0
FFE0
C000
C000
C000
C000
C000
FF80
FF80
C000
C000
C000
C000
C000
C000
FFE0
FFE0
ENDCHAR
STARTCHAR uni0410
ENCODING 1040
SWIDTH 560 0
DWIDTH 14 0
BBX 12 17 0 0
BITMAP
0F00
3FC0
70E0
6060
C030
C030
C030
C030
FFF0
FFF0
C030
C030
C030
C030
C030
C030
C030
ENDCHAR
STARTCHAR uni0411
ENCODING 1041
SWIDTH 440 0
DWIDTH 11 0
BBX 9 17 0 0
BITMAP
FF80
FF80
C000
C000
C000
C000
FE00
FF00
C380
C180
C180
C180
C180
C180
C380
FF00
FE00
ENDCHAR
STARTCHAR uni0412
ENCODING 1042
SWIDTH 440 0
DWIDTH 11 0
BBX 9 17 0 0
BITMAP
FC00
FE00
C700
C300
C300
C700
CE00
FE00
FF00
C380
C180
C180
C180
C180
C380
FF00
FE00
ENDCHAR
STARTCHAR uni0413
ENCODING 1043
SWIDTH 440 0
DWIDTH 11 0
BBX 9 17 0 0
BITMAP
FF80
FF80
C000
C000
C000
C000
C000
C000
C000
C000
C000
C000
C000
C000
C000
C000
C000
ENDCHAR
STARTCHAR uni0414
ENCODING 1044
SWIDTH 640 0
DWIDTH 16 0
BBX 14 17 0 0
BITMAP
0300
0780
0780
0CC0
0CC0
1860
1860
1860
3030
3030
3030
3030
FFFC
FFFC
C00C
C00C
C00C
ENDCHAR
STARTCHAR uni0415
ENCODING 1045
SWIDTH 520 0
DWIDTH 13 0
BBX 11 17 0 0
BITMAP
FFE0
FFE0
C000
C000
C000
C000
C000
FF80
FF80
C000
C000
C000
C000
C000
C000
FFE0
FFE0
ENDCHAR
STARTCHAR uni0416
ENCODING 1046
SWIDTH 720 0
DWIDTH 18 0
BBX 16 17 0 0
BITMAP
C183
C183
C183
C183
C183
E187
799E
1FFC
0FF0
1FFC
799E
E187
C183
C183
C183
C183
C183
ENDCHAR
STARTCHAR uni0417
ENCODING 1047
SWIDTH 461 0
DWIDTH 12 0
BBX 10 17 0 0
BITMAP
3F00
7F80
E1C0
C0C0
C0C0
01C0
0380
0700
0F80
01C0
00C0
00C0
C0C0
C0C0
E1C0
7F80
3F00
ENDCHAR
STARTCHAR uni0418
ENCODING 1048
SWIDTH 560 0
DWIDTH 14 0
BBX 12 17 0 0
BITMAP
C070
C0F0
C0F0
C1F0
C1B0
C3B0
C330
C730
C630
CE30
CC30
DC30
D830
F830
F030
F030
E030
ENDCHAR
STARTCHAR uni0419
ENCODING 1049
SWIDTH 560 0
DWIDTH 14 0
BBX 12 22 0 0
BITMAP
30C0
39C0
1F80
0F00
0000
C070
C0F0
C0F0
C1F0
C1B0
C3B0
C330
C730
C630
CE30
CC30
DC30
D830
F830
F030
F030
E030
ENDCHAR
STARTCHAR uni041A
ENCODING 1050
SWIDTH 520 0
DWIDTH 13 0
BBX 11 17 0 0
BITMAP
C060
C060
C060
C0E0
C1C0
C380
CF00
FE00
FF00
C780
C1C0
C0C0
C0E0
C060
C060
C060
C060
ENDCHAR
STARTCHAR uni041B
ENCODING 1051
SWIDTH 760 0
DWIDTH 19 0
BBX 17 17 0 0
BITMAP
01C000
01C000
03E000
036000
077000
063000
0E3800
0C1800
1C1C00
180C00
380E00
300600
700700
600300
E00380
C00180
C00180
ENDCHAR
STARTCHAR uni041C
ENCODING 1052
SWIDTH 640 0
DWIDTH 16 0
BBX 14 17 0 0
BITMAP
E01C
E01C
F03C
F03C
F87C
D86C
DCEC
CCCC
CFCC
C78C
C78C
C30C
C30C
C00C
C00C
C00C
C00C
ENDCHAR
STARTCHAR uni041D
ENCODING 1053
SWIDTH 520 0
DWIDTH 13 0
BBX 11 17 0 0
BITMAP
C060
C060
C060
C060
C060
C060
C060
C060
FFE0
FFE0
C060
C060
C060
C060
C060
C060
C060
ENDCHAR
STARTCHAR uni041E
ENCODING 1054
SWIDTH 560 0
DWIDTH 14 0
BBX 12 17 0 0
BITMAP
1F80
3FC0
70E0
6060
E070
C030
C030
C030
C030
C030
C030
C030
E070
6060
70E0
3FC0
1F80
ENDCHAR
STARTCHAR uni041F
ENCODING 1055
SWIDTH 520 0
DWIDTH 13 0
BBX 11 17 0 0
BITMAP
FFE0
FFE0
C060
C060
C060
C060
C060
C060
C060
C060
C060
C060
C060
C060
C060
C060
C060
ENDCHAR
STARTCHAR uni0420
ENCODING 1056
SWIDTH 461 0
DWIDTH 12 0
BBX 10 17 0 0
BITMAP
FE00
FF00
C380
C180
C0C0
C0C0
C0C0
C180
C380
FF00
FE00
C000
C000
C000
C000
C000
C000
ENDCHAR
STARTCHAR uni0421
ENCODING 1057
SWIDTH 520 0
DWIDTH 13 0
BBX 11 17 0 0
BITMAP
1F80
3FC0
70E0
6060
E060
C000
C000
C000
C000
C000
C000
C000
E060
6060
70E0
3FC0
1F80
ENDCHAR
STARTCHAR uni0422
ENCODING 1058
SWIDTH 560 0
DWIDTH 14 0
BBX 11 17 1 0
BITMAP
FFE0
FFE0
0C00
0C00
0C00
0C00
0C00
0C00
0C00
0C00
0C00
0C00
0C00
0C00
0C00
0C00
0C00
ENDCHAR
STARTCHAR uni0423
ENCODING 1059
SWIDTH 560 0
DWIDTH 14 0
BBX 12 17 0 0
BITMAP
C030
C030
C030
C030
E070
6060
70E0
3FC0
1FC0
0180
0380
0300
0700
0E00
1C00
F800
F000
ENDCHAR
STARTCHAR uni0424
ENCODING 1060
SWIDTH 560 0
DWIDTH 14 0
BBX 12 17 0 0
BITMAP
0600
3FC0
7FE0
E670
C630
C630
C630
C630
C630
E670
7FE0
3FC0
0600
0600
0600
0600
0600
ENDCHAR
STARTCHAR uni0425
ENCODING 1061
SWIDTH 600 0
DWIDTH 15 0
BBX 13 17 0 0
BITMAP
C018
C018
C018
E038
6030
7070
38E0
1FC0
0F80
1FC0
38E0
7070
6030
E038
C018
C018
C018
ENDCHAR
STARTCHAR uni0426
ENCODING 1062
SWIDTH 560 0
DWIDTH 14 0
BBX 13 19 0 -2
BITMAP
C060
C060
C060
C060
C060
C060
C060
C060
C060
C060
C060
C060
C060
C060
C060
FFF8
FFF8
0018
0018
ENDCHAR
STARTCHAR uni0427
ENCODING 1063
SWIDTH 520 0
DWIDTH 13 0
BBX 9 17 0 0
BITMAP
C180
C180
C180
C180
C180
C180
E180
7F80
3F80
0180
0180
0180
0180
0180
0180
0180
0180
ENDCHAR
STARTCHAR uni0428
ENCODING 1064
SWIDTH 880 0
DWIDTH 22 0
BBX 20 17 0 0
BITMAP
C06030
C06030
C06030
C06030
C06030
C06030
C06030
C06030
C06030
C06030
C06030
C06030
C06030
C06030
C06030
FFFFF0
FFFFF0
ENDCHAR
STARTCHAR uni0429
ENCODING 1065
SWIDTH 920 0
DWIDTH 23 0
BBX 22 19 0 -2
BITMAP
C06030
C06030
C06030
C06030
C06030
C06030
C06030
C06030
C06030
C06030
C06030
C06030
C06030
C06030
C06030
FFFFFC
FFFFFC
00000C
00000C
ENDCHAR
STARTCHAR uni042A
ENCODING 1066
SWIDTH 600 0
DWIDTH 15 0
BBX 13 17 0 0
BITMAP
F800
F800
1800
1800
1800
1800
1F80
1FE0
1870
1830
1818
1818
1818
1830
18F0
1FE0
1F80
ENDCHAR
STARTCHAR uni042B
ENCODING 1067
SWIDTH 640 0
DWIDTH 16 0
BBX 14 17 0 0
BITMAP
C00C
C00C
C00C
C00C
C00C
C00C
FC0C
FF0C
C38C
C18C
C0CC
C0CC
C0CC
C18C
C78C
FF0C
FC0C
ENDCHAR
STARTCHAR uni042C
ENCODING 1068
SWIDTH 461 0
DWIDTH 12 0
BBX 10 17 0 0
BITMAP
C000
C000
C000
C000
C000
C000
FC00
FF00
C380
C180
C0C0
C0C0
C0C0
C180
C780
FF00
FC00
ENDCHAR
STARTCHAR uni042D
ENCODING 1069
SWIDTH 520 0
DWIDTH 13 0
BBX 11 17 0 0
BITMAP
3F00
7F80
E1C0
C0C0
00E0
0060
0060
0FE0
0FE0
0060
0060
0060
00E0
C0C0
E1C0
7F80
3F00
ENDCHAR
STARTCHAR uni042E
ENCODING 1070
SWIDTH 720 0
DWIDTH 18 0
BBX 16 17 0 0
BITMAP
C1F8
C3FC
C70E
C606
CE07
CC03
CC03
FC03
FC03
CC03
CC03
CC03
CE07
C606
C70E
C3FC
C1F8
ENDCHAR
STARTCHAR uni042F
ENCODING 1071
SWIDTH 461 0
DWIDTH 12 0
BBX 10 17 0 0
BITMAP
0FC0
3FC0
78C0
60C0
C0C0
C0C0
C0C0
60C0
78C0
3FC0
0FC0
1CC0
38C0
70C0
E0C0
C0C0
C0C0
ENDCHAR
STARTCHAR uni0430
ENCODING 1072
SWIDTH 384 0
DWIDTH 10 0
BBX 9 12 0 0
BITMAP
7E00
FF00
C300
0300
0300
3F00
7F00
E300
C300
E300
7F80
3D80
ENDCHAR
STARTCHAR uni0431
ENCODING 1073
SWIDTH 400 0
DWIDTH 10 0
BBX 8 17 0 0
BITMAP
03
3F
7E
E0
C0
FC
FE
E7
C3
C3
C3
C3
C3
C3
E7
7E
3C
ENDCHAR
STARTCHAR uni0432
ENCODING 1074
SWIDTH 384 0
DWIDTH 10 0
BBX 8 12 0 0
BITMAP
F8
FC
CC
CC
D8
FC
FE
C7
C3
C7
FE
FC
ENDCHAR
STARTCHAR uni0433
ENCODING 1075
SWIDTH 307 0
DWIDTH 8 0
BBX 6 12 0 0
BITMAP
FC
FC
C0
C0
C0
C0
C0
C0
C0
C0
C0
C0
ENDCHAR
STARTCHAR uni0434
ENCODING 1076
SWIDTH 461 0
DWIDTH 12 0
BBX 10 14 0 -2
BITMAP
1E00
3F00
7380
6180
6180
6180
6180
6180
6180
6180
FFC0
FFC0
C0C0
C0C0
ENDCHAR
STARTCHAR uni0435
ENCODING 1077
SWIDTH 384 0
DWIDTH 10 0
BBX 8 12 0 0
BITMAP
3C
7E
E7
C3
C3
FF
FE
C0
C0
E3
7F
3E
ENDCHAR
STARTCHAR uni0436
ENCODING 1078
SWIDTH 560 0
DWIDTH 14 0
BBX 12 12 0 0
BITMAP
C630
C630
E670
76E0
3FC0
1F80
1F80
3FC0
76E0
E670
C630
C630
ENDCHAR
STARTCHAR uni0437
ENCODING 1079
SWIDTH 345 0
DWIDTH 9 0
BBX 7 12 0 0
BITMAP
78
FC
CE
0E
1C
38
3C
0E
06
C6
FE
7C
ENDCHAR
STARTCHAR uni0438
ENCODING 1080
SWIDTH 384 0
DWIDTH 10 0
BBX 8 12 0 0
BITMAP
C3
C7
C7
CF
CF
DB
DB
F3
F3
E3
E3
C3
ENDCHAR
STARTCHAR uni0439
ENCODING 1081
SWIDTH 384 0
DWIDTH 10 0
BBX 8 16 0 0
BITMAP
63
7F
3E
00
C3
C7
C7
CF
CF
DB
DB
F3
F3
E3
E3
C3
ENDCHAR
STARTCHAR uni043A
ENCODING 1082
SWIDTH 360 0
DWIDTH 9 0
BBX 7 12 0 0
BITMAP
C6
C6
CE
DC
F8
F0
F8
DC
CE
C6
C6
C6
ENDCHAR
STARTCHAR uni043B
ENCODING 1083
SWIDTH 560 0
DWIDTH 14 0
BBX 12 12 0 0
BITMAP
0600
0600
0F00
0F00
1980
1980
30C0
30C0
6060
6060
C030
C030
ENDCHAR
STARTCHAR uni043C
ENCODING 1084
SWIDTH 520 0
DWIDTH 13 0
BBX 11 12 0 0
BITMAP
C060
C060
E0E0
E0E0
F1E0
F1E0
DB60
DB60
CE60
CE60
C060
C060
ENDCHAR
STARTCHAR uni043D
ENCODING 1085
SWIDTH 384 0
DWIDTH 10 0
BBX 8 12 0 0
BITMAP
C3
C3
C3
C3
C3
FF
FF
C3
C3
C3
C3
C3
ENDCHAR
STARTCHAR uni043E
ENCODING 1086
SWIDTH 422 0
DWIDTH 11 0
BBX 9 12 0 0
BITMAP
3E00
7F00
E380
C180
C180
C180
C180
C180
C180
E380
7F00
3E00
ENDCHAR
STARTCHAR uni043F
ENCODING 1087
SWIDTH 384 0
DWIDTH 10 0
BBX 8 12 0 0
BITMAP
FF
FF
C3
C3
C3
C3
C3
C3
C3
C3
C3
C3
ENDCHAR
STARTCHAR uni0440
ENCODING 1088
SWIDTH 384 0
DWIDTH 10 0
BBX 8 18 0 -6
BITMAP
FC
FE
C7
C3
C3
C3
C3
C3
C3
C7
FE
FC
C0
C0
C0
C0
C0
C0
ENDCHAR
STARTCHAR uni0441
ENCODING 1089
SWIDTH 345 0
DWIDTH 9 0
BBX 7 12 0 0
BITMAP
3C
7E
E6
C0
C0
C0
C0
C0
C0
E6
7E
3C
ENDCHAR
STARTCHAR uni0442
ENCODING 1090
SWIDTH 384 0
DWIDTH 10 0
BBX 8 12 0 0
BITMAP
FF
FF
18
18
18
18
18
18
18
18
18
18
ENDCHAR
STARTCHAR uni0443
ENCODING 1091
SWIDTH 422 0
DWIDTH 12 0
BBX 9 12 0 0
BITMAP
C180
C180
6300
6300
3600
3E00
1C00
0C00
1800
3800
F000
E000
ENDCHAR
STARTCHAR uni0444
ENCODING 1092
SWIDTH 560 0
DWIDTH 14 0
BBX 12 18 0 -6
BITMAP
3FC0
7FE0
E670
C630
C630
C630
C630
C630
C630
E670
7FE0
3FC0
0600
0600
0600
0600
0600
0600
ENDCHAR
STARTCHAR uni0445
ENCODING 1093
SWIDTH 422 0
DWIDTH 11 0
BBX 9 12 0 0
BITMAP
C180
C180
6300
7700
3E00
1C00
1C00
3E00
7700
6300
C180
C180
ENDCHAR
STARTCHAR uni0446
ENCODING 1094
SWIDTH 440 0
DWIDTH 11 0
BBX 10 13 0 -1
BITMAP
C300
C300
C300
C300
C300
C300
C300
C300
C300
C300
FFC0
FFC0
00C0
ENDCHAR
STARTCHAR uni0447
ENCODING 1095
SWIDTH 384 0
DWIDTH 10 0
BBX 8 12 0 0
BITMAP
C3
C3
C3
C3
E3
7F
3F
03
03
03
03
03
ENDCHAR
STARTCHAR uni0448
ENCODING 1096
SWIDTH 615 0
DWIDTH 15 0
BBX 14 12 0 0
BITMAP
C30C
C30C
C30C
C30C
C30C
C30C
C30C
C30C
C30C
C30C
FFFC
FFFC
ENDCHAR
STARTCHAR uni0449
ENCODING 1097
SWIDTH 691 0
DWIDTH 17 0
BBX 16 13 0 -1
BITMAP
C30C
C30C
C30C
C30C
C30C
C30C
C30C
C30C
C30C
C30C
FFFF
FFFF
0003
ENDCHAR
STARTCHAR uni044A
ENCODING 1098
SWIDTH 422 0
DWIDTH 11 0
BBX 9 12 0 0
BITMAP
F000
F000
3000
3000
3E00
3F00
3380
3180
3180
3380
3F00
3E00
ENDCHAR
STARTCHAR uni044B
ENCODING 1099
SWIDTH 461 0
DWIDTH 12 0
BBX 10 12 0 0
BITMAP
C0C0
C0C0
C0C0
C0C0
F8C0
FCC0
CEC0
C6C0
C6C0
CEC0
FCC0
F8C0
ENDCHAR
STARTCHAR uni044C
ENCODING 1100
SWIDTH 345 0
DWIDTH 9 0
BBX 7 12 0 0
BITMAP
C0
C0
C0
C0
F8
FC
CE
C6
C6
CE
FC
F8
ENDCHAR
STARTCHAR uni044D
ENCODING 1101
SWIDTH 384 0
DWIDTH 10 0
BBX 8 12 0 0
BITMAP
7C
FE
C7
03
03
3F
3F
03
03
C7
FE
7C
ENDCHAR
STARTCHAR uni044E
ENCODING 1102
SWIDTH 600 0
DWIDTH 15 0
BBX 13 12 0 0
BITMAP
C3E0
C7F0
CE38
CC18
CC18
FC18
FC18
CC18
CC18
CE38
C7F0
C3E0
ENDCHAR
STARTCHAR uni044F
ENCODING 1103
SWIDTH 345 0
DWIDTH 9 0
BBX 7 12 0 0
BITMAP
3E
7E
E6
C6
E6
7E
3E
1E
3E
76
E6
C6
ENDCHAR
STARTCHAR uni0451
ENCODING 1105
SWIDTH 384 0
DWIDTH 10 0
BBX 8 15 0 0
BITMAP
66
66
00
3C
7E
E7
C3
C3
FF
FE
C0
C0
E3
7F
3E
ENDCHAR
STARTCHAR uni23F8
ENCODING 9208
SWIDTH 500 0
DWIDTH 12 0
BBX 11 11 0 0
BITMAP
E0E0
E0E0
E0E0
E0E0
E0E0
E0E0
E0E0
E0E0
E0E0
E0E0
E0E0
ENDCHAR
STARTCHAR uni25B6
ENCODING 9654
SWIDTH 520 0
DWIDTH 13 0
BBX 11 11 0 0
BITMAP
8000
E000
F800
FE00
FF80
FFE0
FF80
FE00
F800
E000
8000
ENDCHAR
STARTCHAR uni2713
ENCODING 10003
SWIDTH 422 0
DWIDTH 11 0
BBX 9 10 0 1
BITMAP
0180
0180
0380
0300
0700
C600
EE00
7C00
3C00
1800
ENDCHAR
STARTCHAR u1F507
ENCODING 10004
SWIDTH 462 0
DWIDTH 12 0
BBX 10 10 0 1
BITMAP
0240
0680
0F00
3C00
FA00
F600
2E00
2E00
4600
8200
ENDCHAR
STARTCHAR u1F508
ENCODING 10005
SWIDTH 461 0
DWIDTH 12 0
BBX 9 10 0 1
BITMAP
0200
0600
0E00
3E00
FE80
FE80
3E00
0E00
0600
0200
ENDCHAR
STARTCHAR u1F509
ENCODING 10006
SWIDTH 461 0
DWIDTH 12 0
BBX 11 10 0 1
BITMAP
0200
0600
0E80
3E40
FEA0
FEA0
3E40
0E80
0600
0200
ENDCHAR
STARTCHAR u1F50A
ENCODING 10007
SWIDTH 461 0
DWIDTH 12 0
BBX 13 10 0 1
BITMAP
02C0
0620
0E90
3E48
FEA8
FEA8
3E48
0E90
0620
02C0
ENDCHAR
STARTCHAR .notdef
ENCODING 10009
SWIDTH 600 0
DWIDTH 15 0
BBX 1 1 0 0
BITMAP
00
ENDCHAR
STARTCHAR .notdef
ENCODING 10010
SWIDTH 600 0
DWIDTH 15 0
BBX 1 1 0 0
BITMAP
00
ENDCHAR
STARTCHAR .notdef
ENCODING 10011
SWIDTH 600 0
DWIDTH 15 0
BBX 13 17 0 0
BITMAP
FFF8
C018
C018
A028
9048
8888
8888
8508
8208
8508
8888
8888
9048
A028
C018
C018
FFF8
ENDCHAR
ENDFONT
